<?xml version="1.0" encoding="UTF-8"?>
<svg width="40px" height="40px" viewBox="0 0 40 40" version="1.1" xmlns="http://www.w3.org/2000/svg" xmlns:xlink="http://www.w3.org/1999/xlink">
    <!-- Generator: Sketch 51.3 (57544) - http://www.bohemiancoding.com/sketch -->
    <title>email</title>
    <desc>Created with Sketch.</desc>
    <defs></defs>
    <g id="Page-2" stroke="none" stroke-width="1" fill="none" fill-rule="evenodd">
        <g id="01忘记密码" transform="translate(-605.000000, -222.000000)" fill-rule="nonzero">
            <g id="Group" transform="translate(545.000000, 186.000000)">
                <g id="email" transform="translate(56.000000, 32.000000)">
                    <rect id="Rectangle-path" fill="#000000" opacity="0" x="0" y="0" width="48" height="48"></rect>
                    <g id="Group-2" transform="translate(4.000000, 4.000000)">
                        <path d="M34.3506909,12.3987636 L5.21294545,12.3987636 C2.41432727,12.3987636 0.145454545,14.6678545 0.145454545,17.4662545 L0.145454545,30.1347636 C0.145454545,32.9333818 2.41432727,35.2024727 5.21294545,35.2024727 L34.3509091,35.2024727 C37.1493091,35.2024727 39.4184,32.9336 39.4184,30.1347636 L39.4184,17.4662545 C39.4181818,14.6678545 37.1493091,12.3987636 34.3506909,12.3987636 Z" id="Shape" fill="#044A8F"></path>
                        <path d="M25.4469091,0.363636364 L5.21272727,0.363636364 C4.70875962,0.363578486 4.22541656,0.563753221 3.86905762,0.920112166 C3.51269868,1.27647111 3.31252394,1.75981417 3.31258182,2.26378182 L3.31258182,28.2346182 C3.31246604,28.7386036 3.51262218,29.2219803 3.86899368,29.5783518 C4.22536518,29.9347233 4.70874188,30.1348794 5.21272727,30.1347636 L34.3509091,30.1347636 C34.8548767,30.1348215 35.3382198,29.9346468 35.6945787,29.5782878 C36.0509377,29.2219289 36.2511124,28.7385858 36.2510545,28.2346182 L36.2510545,11.1677818 L25.4469091,0.363636364 Z" id="Shape" fill="#F1F9FF"></path>
                        <path d="M21.6821818,7.96487273 L7.11330909,7.96487273 L7.11330909,9.86501818 L21.6821818,9.86501818 L21.6821818,7.96487273 Z M7.11330909,32.0351273 L32.4505455,32.0351273 L32.4505455,30.1347636 L7.11330909,30.1347636 L7.11330909,32.0351273 Z M7.11330909,28.2346182 L32.4505455,28.2346182 L32.4505455,26.3342545 L7.11330909,26.3342545 L7.11330909,28.2346182 Z M7.11330909,20.6333818 L32.4505455,20.6333818 L32.4505455,18.7330182 L7.11330909,18.7330182 L7.11330909,20.6333818 Z M7.11330909,24.4338909 L32.4505455,24.4338909 L32.4505455,22.5337455 L7.11330909,22.5337455 L7.11330909,24.4338909 Z M7.11330909,14.9325091 L7.11330909,16.8326545 L32.4505455,16.8326545 L32.4505455,14.9325091 L7.11330909,14.9325091 Z" id="Shape" fill="#D4EAFA"></path>
                        <path d="M38.3170182,14.9423273 L1.40370909,38.8790545 C1.95309091,39.3450909 2.65214545,39.6363636 3.42538182,39.6363636 L36.2610909,39.6363636 C38.0048,39.6363636 39.4184,38.2105455 39.4184,36.4511273 L39.4184,17.3412364 C39.4181818,16.3788364 38.9859636,15.5264 38.3170182,14.9423273 Z" id="Shape" fill="#0469CE"></path>
                        <path d="M1.24967273,15.0810909 C0.578981818,15.6612364 0.145454545,16.5093091 0.145454545,17.4662545 L0.145454545,36.4690182 C0.145454545,38.2186182 1.5632,39.6363636 3.31258182,39.6363636 L36.2508364,39.6363636 C37.0266909,39.6363636 37.7274909,39.3468364 38.2779636,38.8836364 L1.24967273,15.0810909 Z" id="Shape" fill="#007FFF"></path>
                        <polygon id="Shape" fill="#D6E1E8" points="26.1160727 1.03301818 27.2727273 10 36.2508364 14.3152727 36.2508364 11.1677818"></polygon>
                        <path d="M25.4826909,0.399636364 L25.4826909,9.23163636 C25.4825751,9.73567962 25.6827543,10.2191118 26.0391667,10.5755242 C26.3955791,10.9319367 26.8790113,11.1321158 27.3830545,11.132 L36.2150545,11.1320001 L25.4826909,0.399636364 Z" id="Shape" fill="#D4EAFA"></path>
                    </g>
                </g>
            </g>
        </g>
    </g>
</svg>