<?xml version="1.0" encoding="UTF-8"?>
<svg width="36px" height="42px" viewBox="0 0 36 42" version="1.1" xmlns="http://www.w3.org/2000/svg" xmlns:xlink="http://www.w3.org/1999/xlink">
    <!-- Generator: Sketch 51.3 (57544) - http://www.bohemiancoding.com/sketch -->
    <title>mobile</title>
    <desc>Created with Sketch.</desc>
    <defs></defs>
    <g id="Page-2" stroke="none" stroke-width="1" fill="none" fill-rule="evenodd">
        <g id="01忘记密码" transform="translate(-801.000000, -223.000000)" fill-rule="nonzero">
            <g id="Group-3" transform="translate(735.000000, 186.000000)">
                <g id="mobile" transform="translate(56.000000, 37.000000)">
                    <g id="组件-手机号" transform="translate(0.000000, 1.000000)">
                        <rect id="Rectangle-path" fill="#000000" opacity="0" x="0" y="0" width="48" height="48"></rect>
                        <path d="M35.28,4.8 C36.96,4.8 38.4,6.24 38.4,8.16 L38.4,37.56 C38.4,39.36 36.96,40.92 35.28,40.92 L13.92,40.92 C12.24,40.8 10.8,39.36 10.8,37.44 L10.8,8.16 C10.8,6.24 12.24,4.8 13.92,4.8 L35.28,4.8 Z M32.88,28.44 C33.84,28.44 34.68,27.6 34.68,26.64 L34.68,10.44 C34.68,9.48 33.84,8.64 32.88,8.64 L16.32,8.64 C15.36,8.64 14.52,9.48 14.52,10.44 L14.52,26.76 C14.52,27.72 15.36,28.56 16.32,28.56 L32.88,28.56 L32.88,28.44 Z" id="Shape" fill="#2589FF"></path>
                        <path d="M24.6,38.4 C22.92,38.4 21.6,37.08 21.6,35.4 C21.6,33.72 22.92,32.4 24.6,32.4 C26.28,32.4 27.6,33.72 27.6,35.4 C27.6,37.08 26.28,38.4 24.6,38.4 Z" id="Shape" fill="#C5DDFB"></path>
                        <path d="M21.6,12 L27.6,12 C28.32,12 28.8,12.48 28.8,13.2 C28.8,13.92 28.32,14.4 27.6,14.4 L21.6,14.4 C20.88,14.4 20.4,13.92 20.4,13.2 C20.4,12.48 20.88,12 21.6,12 Z" id="Shape" fill="#A3CCFF"></path>
                    </g>
                    <path d="M34.8,12 L30,16 L30.8,12 L26,12 C24.8954305,12 24,11.1045695 24,10 L24,2 C24,0.8954305 24.8954305,2.02906125e-16 26,0 L44,0 C45.1045695,-2.02906125e-16 46,0.8954305 46,2 L46,10 C46,11.1045695 45.1045695,12 44,12 L34.8,12 Z" id="Combined-Shape" fill="#D4EAFA"></path>
                    <circle id="Oval" fill="#FFFFFF" cx="30.5" cy="6.5" r="1.5"></circle>
                    <circle id="Oval-Copy" fill="#FFFFFF" cx="35" cy="6.5" r="1.5"></circle>
                    <circle id="Oval-Copy-2" fill="#FFFFFF" cx="39.5" cy="6.5" r="1.5"></circle>
                </g>
            </g>
        </g>
    </g>
</svg>